<?xml version="1.0" encoding="UTF-8"?>
<svg xmlns="http://www.w3.org/2000/svg" width="512" height="512" viewBox="0 0 512 512">
  <defs>
    <style>
      .outer { fill: none; stroke: #221f1f; stroke-width: 36; stroke-linejoin: round; }
      .middle { fill: none; stroke: #7a2a6f; stroke-width: 26; stroke-linejoin: round; }
      .inner { fill: #ffffff; stroke: #ffffff; stroke-width: 8; stroke-linejoin: round; }
    </style>
  </defs>

  <!-- Background transparent; draw shapes three times to create double outline -->
  <g id="icon">
    <!-- Outer outline -->
    <g class="outer">
      <!-- O shape -->
      <circle cx="190" cy="280" r="120"/>
      <circle cx="190" cy="280" r="70" fill="none"/>
      <!-- Circumflex accent -->
      <path d="M130 128 L190 78 L250 128" />
      <!-- B stem -->
      <path d="M300 160 L348 160 L348 400 L300 400 Z" />
      <!-- B top lobe -->
      <circle cx="382" cy="230" r="68"/>
      <!-- B bottom lobe -->
      <circle cx="382" cy="330" r="68"/>
    </g>

    <!-- Middle outline -->
    <g class="middle">
      <circle cx="190" cy="280" r="120"/>
      <circle cx="190" cy="280" r="70" fill="none"/>
      <path d="M130 128 L190 78 L250 128" />
      <path d="M300 160 L348 160 L348 400 L300 400 Z" />
      <circle cx="382" cy="230" r="68"/>
      <circle cx="382" cy="330" r="68"/>
    </g>

    <!-- Inner fill -->
    <g class="inner">
      <circle cx="190" cy="280" r="120"/>
      <circle cx="190" cy="280" r="70" fill="none"/>
      <path d="M130 128 L190 78 L250 128" />
      <path d="M300 160 L348 160 L348 400 L300 400 Z" />
      <circle cx="382" cy="230" r="68"/>
      <circle cx="382" cy="330" r="68"/>
    </g>
  </g>
</svg>
